<svg width="64" height="64" viewBox="0 0 64 64" fill="none" xmlns="http://www.w3.org/2000/svg">
<path d="M32 10.3492C34.5397 10.3492 36.8889 11.9365 37.7143 14.4127L37.8413 14.7936H38.2222H47.5556C49.7143 14.7936 51.4286 16.5079 51.4286 18.6667V49.7778C51.4286 51.9365 49.7143 53.6508 47.5556 53.6508H16.4444C14.2857 53.6508 12.5714 51.9365 12.5714 49.7778V18.6667C12.5714 16.5079 14.2857 14.7936 16.4444 14.7936H26.0952L26.2222 14.4127C27.1111 11.9365 29.4603 10.3492 32 10.3492ZM32 9.77777C29.0794 9.77777 26.6667 11.6825 25.7143 14.2222H16.4444C13.9683 14.2222 12 16.1905 12 18.6667V49.7778C12 52.254 13.9683 54.2222 16.4444 54.2222H47.5556C50.0317 54.2222 52 52.254 52 49.7778V18.6667C52 16.1905 50.0317 14.2222 47.5556 14.2222H38.2857C37.3333 11.6825 34.8571 9.77777 32 9.77777Z" fill="white"/>
<path d="M32.0001 14.7936C32.9524 14.7936 33.6508 15.492 33.6508 16.4444C33.6508 17.3968 32.9524 18.0952 32.0001 18.0952C31.0477 18.0952 30.3493 17.3968 30.3493 16.4444C30.3493 15.492 31.0477 14.7936 32.0001 14.7936ZM32.0001 14.2222C30.7937 14.2222 29.7778 15.238 29.7778 16.4444C29.7778 17.6507 30.7937 18.6666 32.0001 18.6666C33.2064 18.6666 34.2223 17.6507 34.2223 16.4444C34.2223 15.238 33.2064 14.2222 32.0001 14.2222Z" fill="white"/>
<path d="M31.9998 23.6826C35.3649 23.6826 38.0951 26.4127 38.0951 29.7778C38.0951 33.1429 35.3649 35.8731 31.9998 35.8731C28.6348 35.8731 25.9046 33.1429 25.9046 29.7778C25.9046 26.4127 28.6348 23.6826 31.9998 23.6826ZM31.9998 40.3175C36.3808 40.3175 44.7617 42.7937 44.7617 46.6667V49.2064H19.2379V46.6667C19.2379 42.7937 27.6189 40.3175 31.9998 40.3175ZM31.9998 23.1111C28.3173 23.1111 25.3332 26.0953 25.3332 29.7778C25.3332 33.4604 28.3173 36.4445 31.9998 36.4445C35.6824 36.4445 38.6665 33.4604 38.6665 29.7778C38.6665 26.0953 35.6824 23.1111 31.9998 23.1111ZM31.9998 39.8096C27.5554 39.8096 18.6665 42.2858 18.6665 46.7302V49.7778H45.3332V46.6667C45.3332 42.2223 36.4443 39.8096 31.9998 39.8096Z" fill="white"/>
</svg>
