<svg width="48" height="48" viewBox="0 0 48 48" fill="none" xmlns="http://www.w3.org/2000/svg">
<g clip-path="url(#clip0_11_124)">
<path d="M47.8628 9.73713L42.1028 3.90856C41.8971 3.70284 41.6228 3.70284 41.4171 3.90856C41.2114 4.11427 41.2114 4.38856 41.4171 4.59427L47.1085 10.2857L46.9028 20.7771L30.5828 37.0971C30.4457 37.2343 30.4457 37.5771 30.5828 37.7143C30.72 37.8514 31.0628 37.8514 31.2 37.7143L47.6571 21.2571C47.7257 21.1886 47.7257 21.0514 47.7943 20.9828L48 10.08C48 9.94284 47.9314 9.87427 47.8628 9.73713Z" fill="white"/>
<path d="M27.7711 39.9086L26.1254 41.5543L6.44541 21.8743L20.0911 8.22855C20.2968 8.02284 20.2968 7.74855 20.0911 7.54284C19.8854 7.33712 19.6111 7.33712 19.4054 7.54284L5.48541 21.6L0.411122 26.6743C0.205407 26.8114 0.205407 27.1543 0.411122 27.2914L20.434 47.7943C20.5026 47.8628 20.6397 47.9314 20.7083 47.9314C20.7768 47.9314 20.914 47.8628 20.9826 47.8628L26.2626 42.5143L28.2511 40.5257C28.4568 40.32 28.4568 40.0457 28.2511 39.84C28.1826 39.7028 27.9083 39.7028 27.7711 39.9086ZM20.7083 46.9028L1.30255 27.0171L5.82826 22.4914L15.634 32.3657L25.5083 42.1714L20.7083 46.9028Z" fill="white"/>
<path d="M23.9313 4.25143C23.9999 4.25143 24.2056 4.18286 24.2056 4.11429L27.2228 1.09714L37.7828 0.96L38.7428 1.92C38.9485 2.12571 39.2228 2.12571 39.4285 1.92C39.6342 1.71429 39.6342 1.44 39.4285 1.23429L38.3313 0.205714C38.2628 0.0685714 38.1256 0 38.057 0L27.017 0.205714C26.9485 0.205714 26.8113 0.274286 26.7428 0.274286L23.5885 3.42857C23.3828 3.56571 23.3828 3.84 23.5199 4.04571L23.5885 4.11429C23.657 4.18286 23.7942 4.25143 23.9313 4.25143Z" fill="white"/>
<path d="M34.9028 13.0971C34.56 12.6857 34.2857 12.2057 34.2171 11.6571C34.2171 11.3828 33.9428 11.2457 33.7371 11.2457C33.4628 11.2457 33.3257 11.4514 33.3257 11.7257C33.3943 12.48 33.7371 13.1657 34.2171 13.7143C35.4514 14.9485 37.5085 14.9485 38.7428 13.7143C39.9771 12.48 39.9771 10.4228 38.7428 9.18854C37.8514 8.29712 36.4114 7.95426 35.1771 8.50283C34.9714 8.5714 34.8343 8.84569 34.9028 9.0514C34.9714 9.25712 35.2457 9.39426 35.4514 9.32569C36.6857 8.84569 38.0571 9.32569 38.5371 10.56C38.9485 11.4514 38.7428 12.5485 37.9885 13.2343C37.3028 14.0571 35.7943 13.9885 34.9028 13.0971Z" fill="white"/>
<path d="M46.2855 25.7829C46.0112 25.8514 45.9426 26.0572 46.0112 26.2629C46.9026 29.8972 45.4626 34.4229 42.5141 37.3714C38.6741 41.2114 33.2569 41.3486 28.7312 37.7143C25.6455 35.3143 24.5484 30.3086 25.7141 24.48C25.7826 24.2057 25.6455 24 25.3712 24C25.0969 23.9314 24.8912 24.0686 24.8912 24.3429C23.6569 30.5143 24.8912 35.7943 28.2512 38.4686C30.3084 40.1829 32.9826 41.1429 35.6569 41.2114C38.4684 41.2114 41.1426 40.0457 43.1312 37.9886C46.2855 34.8343 47.7941 29.9657 46.9026 26.0572C46.6969 25.8514 46.4912 25.7143 46.2855 25.7829Z" fill="white"/>
<path d="M0.616992 11.7943C6.23985 8.29717 12.617 6.37717 19.1998 6.24003C29.8284 6.10289 35.7941 11.7943 35.8627 11.8629C35.9313 11.9315 36.0684 11.9315 36.137 11.9315C36.2056 11.9315 36.4113 11.8629 36.4113 11.7943C36.5484 11.6572 36.5484 11.3143 36.4113 11.1772C36.137 10.9715 30.3084 5.28003 19.5427 5.28003H19.1313C12.4798 5.48574 5.89699 7.40574 0.205563 11.04C-0.000151287 11.1772 -0.0687227 11.4515 0.0684201 11.6572C0.136992 11.8629 0.479849 11.9315 0.616992 11.7943Z" fill="white"/>
</g>
<defs>
<clipPath id="clip0_11_124">
<rect width="48" height="48" fill="white"/>
</clipPath>
</defs>
</svg>
