<svg width="48" height="48" viewBox="0 0 48 48" fill="none" xmlns="http://www.w3.org/2000/svg">
<path d="M24 25.0971C23.8629 25.0971 23.7258 25.0286 23.6572 24.96L14.8115 16.3885C12.4115 14.0571 11.04 10.8343 11.04 7.54284V0.47998H12.0686V7.54284C12.0686 10.6286 13.3029 13.5771 15.4972 15.7028L24 23.9314L32.5029 15.7028C34.6972 13.5771 35.9315 10.6286 35.9315 7.54284V0.47998H36.96V7.54284C36.96 10.9028 35.5886 14.0571 33.1886 16.3885L24.3429 24.96C24.2743 25.0286 24.1372 25.0971 24 25.0971Z" fill="white"/>
<path d="M37.097 47.52H36.0685V41.3486C36.0685 38.1257 34.697 35.1086 32.3656 32.9829L23.9999 25.3029L15.8399 32.9829C13.577 35.1086 12.2742 38.1257 12.2742 41.28V47.52H11.2456V41.28C11.2456 37.8514 12.6856 34.6286 15.1542 32.2971L23.657 24.2743C23.8627 24.0686 24.137 24.0686 24.3427 24.2743L33.0513 32.2286C35.5885 34.56 37.097 37.8514 37.097 41.3486V47.52Z" fill="white"/>
<path d="M40.4573 1.02857H7.54299C7.2687 1.02857 7.06299 0.822857 7.06299 0.548571C7.06299 0.274286 7.2687 0 7.54299 0H40.4573C40.7316 0 40.9373 0.205714 40.9373 0.48C40.9373 0.754286 40.7316 1.02857 40.4573 1.02857Z" fill="white"/>
<path d="M40.4573 48H7.54299C7.2687 48 7.06299 47.7943 7.06299 47.52C7.06299 47.2457 7.2687 47.04 7.54299 47.04H40.4573C40.7316 47.04 40.9373 47.2457 40.9373 47.52C40.9373 47.7943 40.7316 48 40.4573 48Z" fill="white"/>
<path d="M16.5943 7.61143C16.32 7.61143 16.1143 7.40571 16.1143 7.13143V4.52572C16.1143 4.25143 16.32 4.04572 16.5943 4.04572C16.8685 4.04572 17.0743 4.25143 17.0743 4.52572V7.13143C17.0743 7.26857 17.0057 7.40571 16.9371 7.47429C16.8 7.54286 16.6628 7.61143 16.5943 7.61143Z" fill="white"/>
<path d="M16.5943 12C16.32 12 16.1143 11.7943 16.1143 11.52V10.0114C16.1143 9.73715 16.32 9.53143 16.5943 9.53143C16.8685 9.53143 17.0743 9.73715 17.0743 10.0114V11.52C17.0743 11.6571 17.0057 11.7943 16.9371 11.8629C16.8 12 16.6628 12 16.5943 12Z" fill="white"/>
</svg>
