<svg width="48" height="48" viewBox="0 0 48 48" fill="none" xmlns="http://www.w3.org/2000/svg">
<path d="M40.4574 3.77143C40.3202 2.74286 39.7716 1.78286 39.0174 1.09714C38.1945 0.411429 37.1659 0 36.1374 0H11.8631C10.8345 0 9.80592 0.411429 8.98307 1.09714C8.16021 1.78286 7.68021 2.74286 7.54307 3.77143C6.10307 4.66286 5.14307 6.30857 5.14307 8.02286V43.4743C5.14307 44.7086 5.62307 45.8057 6.44592 46.6971C7.26878 47.52 8.4345 48 9.66878 48H33.9431C34.7659 48 35.5888 47.6571 36.2059 47.1086C36.8231 46.56 37.1659 45.7371 37.2345 44.9143H39.8402C40.6631 44.9143 41.4174 44.5714 41.9659 44.0229C42.5145 43.4743 42.8574 42.72 42.8574 41.8971V8.02286C42.8574 6.30857 41.9659 4.66286 40.4574 3.77143ZM7.9545 4.38857C7.9545 4.25143 7.9545 4.11429 7.9545 3.90857C8.09164 2.94857 8.50307 2.05714 9.25735 1.44C10.0116 0.822857 10.9031 0.411429 11.8631 0.48H36.0688C37.0288 0.48 37.9888 0.822857 38.6745 1.50857C39.4288 2.12571 39.8402 3.01714 39.9774 3.97714C39.9774 4.11429 39.9774 4.25143 39.9774 4.45714V32.64C39.9088 32.5029 39.7716 32.3657 39.6345 32.2286C39.1545 31.7486 38.4688 31.4743 37.7831 31.4743H11.5202C10.7659 31.4743 10.0802 31.68 9.46307 32.0229C8.84592 32.4343 8.29735 32.9143 8.02307 33.6L7.9545 4.38857ZM11.5202 31.8857H37.9202C38.4688 31.8857 39.0859 32.0914 39.4974 32.5029C39.9088 32.9143 40.1145 33.4629 40.1145 34.08C40.1145 34.6286 39.9088 35.2457 39.4974 35.6571C39.0859 36.0686 38.5374 36.2743 37.9202 36.2743H12.7545C12.2059 36.2743 11.7945 35.8629 11.7945 35.3143C11.7945 34.7657 12.2059 34.3543 12.7545 34.3543H35.5202V33.8743H12.7545C11.9316 33.8743 11.3145 34.4914 11.3145 35.3143C11.3145 36.0686 11.9316 36.7543 12.7545 36.7543H35.2459C35.1774 37.3029 34.9716 37.8514 34.5602 38.2629C34.1488 38.6743 33.6002 38.9486 33.0516 39.0171H11.2459C10.3545 38.9486 9.53164 38.5371 8.91449 37.92C8.29735 37.2343 7.9545 36.4114 7.9545 35.52C7.9545 34.56 8.29735 33.6686 8.98307 32.9829C9.66878 32.2286 10.5602 31.8857 11.5202 31.8857ZM5.62307 8.02286C5.62307 6.58286 6.30878 5.21143 7.47449 4.32C7.47449 4.32 7.47449 4.32 7.47449 4.38857V35.3829C7.47449 36.4114 7.88592 37.44 8.64021 38.1943C8.9145 38.4686 9.25735 38.7429 9.60021 38.88C8.77735 38.88 7.95449 39.1543 7.20021 39.5657C6.5145 40.0457 5.89735 40.6629 5.5545 41.4171L5.62307 8.02286ZM39.8402 44.4343H11.1088C10.7659 44.4343 10.4916 44.3657 10.2859 44.0914C10.0802 43.8857 9.94307 43.5429 9.94307 43.2686C9.94307 42.9257 10.0802 42.6514 10.2859 42.4457C10.4916 42.24 10.8345 42.1029 11.1088 42.1029H37.0974V41.6229H11.1088C10.6974 41.6229 10.2174 41.76 9.94307 42.1029C9.60021 42.3771 9.46307 42.7886 9.46307 43.2686C9.46307 43.68 9.66878 44.0914 9.94307 44.4343C10.2859 44.7086 10.6974 44.9143 11.1088 44.9143H36.8231C36.7545 45.6 36.4802 46.2857 35.9316 46.7657C35.3831 47.2457 34.6974 47.52 34.0116 47.52H9.66878C8.57164 47.52 7.4745 47.1086 6.72021 46.3543C5.96592 45.6 5.48592 44.5714 5.48592 43.4743C5.48592 42.3771 5.89735 41.3486 6.72021 40.5257C7.4745 39.7714 8.57164 39.36 9.66878 39.36H11.1774C11.2459 39.36 11.3145 39.36 11.4516 39.36H32.7088C32.7774 39.36 32.8459 39.36 32.9831 39.36H39.8402C40.5259 39.36 41.2116 39.5657 41.6916 40.0457C42.1716 40.5257 42.4459 41.2114 42.4459 41.8286C42.4459 42.4457 42.1716 43.2 41.6916 43.6114C41.2116 44.2286 40.5259 44.4343 39.8402 44.4343ZM42.3774 40.3886C41.8288 39.4971 40.8688 38.9486 39.8402 38.9486H34.2859C35.0402 38.4686 35.5888 37.6457 35.6574 36.6857H37.9202C38.6059 36.6857 39.2916 36.4114 39.7716 35.9314C40.2516 35.4514 40.5259 34.7657 40.5259 34.08V4.38857C40.5259 4.38857 40.5259 4.38857 40.5259 4.32C41.6916 5.14286 42.3774 6.51429 42.3774 8.02286V40.3886Z" fill="white"/>
</svg>
