<svg width="191" height="81" viewBox="0 0 191 81" fill="none" xmlns="http://www.w3.org/2000/svg">
<g clip-path="url(#clip0_174_42)">
<path d="M53.714 23.921C54.097 23.921 54.438 24.049 54.694 24.347C54.949 24.603 55.077 24.943 55.077 25.284V58.504C55.077 58.888 54.949 59.186 54.694 59.442C54.438 59.697 54.097 59.825 53.714 59.825H50.861C50.478 59.825 50.18 59.697 49.924 59.442C49.8017 59.3186 49.705 59.1723 49.6393 59.0116C49.5735 58.8508 49.5401 58.6786 49.541 58.505V25.285C49.541 24.901 49.669 24.603 49.924 24.347C50.18 24.049 50.52 23.921 50.861 23.921H53.714ZM97.404 23.921C97.872 23.921 98.256 24.091 98.596 24.432C98.894 24.731 99.065 25.156 99.065 25.625V58.206C99.065 58.675 98.895 59.058 98.596 59.356C98.256 59.697 97.872 59.868 97.404 59.868H75.857C75.389 59.868 75.005 59.698 74.707 59.357C74.5416 59.2155 74.4099 59.0387 74.3217 58.8398C74.2334 58.6408 74.1908 58.4246 74.197 58.207V25.581C74.197 25.113 74.367 24.73 74.707 24.389C75.005 24.049 75.389 23.878 75.857 23.878H97.404V23.921ZM91.868 39.127C92.337 39.127 92.72 38.957 93.018 38.659C93.358 38.318 93.529 37.935 93.529 37.466V31.12C93.529 30.652 93.359 30.268 93.018 29.97C92.8765 29.8045 92.6998 29.6728 92.5008 29.5845C92.3018 29.4963 92.0856 29.4537 91.868 29.46H81.35C80.882 29.46 80.499 29.63 80.158 29.97C80.0059 30.1198 79.8858 30.299 79.8052 30.4967C79.7246 30.6944 79.685 30.9065 79.689 31.12V37.466C79.689 37.934 79.859 38.318 80.158 38.659C80.498 38.957 80.882 39.127 81.35 39.127H91.868ZM91.868 54.332C92.337 54.332 92.72 54.162 93.018 53.863C93.358 53.523 93.529 53.139 93.529 52.671V46.325C93.529 45.856 93.359 45.473 93.018 45.175C92.8766 45.0093 92.7 44.8774 92.501 44.789C92.302 44.7006 92.0857 44.6579 91.868 44.664H81.35C80.882 44.664 80.499 44.834 80.158 45.174C80.0059 45.3238 79.8858 45.503 79.8052 45.7007C79.7246 45.8984 79.685 46.1105 79.689 46.324V52.671C79.689 53.139 79.859 53.523 80.158 53.863C80.498 54.161 80.882 54.332 81.35 54.332H91.868ZM122.315 23.921C122.698 23.921 123.039 24.049 123.295 24.347C123.55 24.603 123.678 24.943 123.678 25.284V58.504C123.678 58.888 123.55 59.186 123.295 59.442C123.039 59.697 122.698 59.825 122.315 59.825H119.462C119.079 59.825 118.781 59.697 118.525 59.442C118.278 59.1927 118.14 58.8557 118.142 58.505V25.285C118.142 24.901 118.27 24.603 118.525 24.347C118.781 24.049 119.121 23.921 119.462 23.921H122.315ZM167.666 25.242C168.049 25.455 168.305 25.795 168.433 26.222C168.56 26.69 168.518 27.116 168.262 27.499L159.916 40.958C159.618 41.511 159.618 42.065 159.916 42.618L168.262 56.248C168.475 56.631 168.56 57.057 168.433 57.525C168.376 57.7309 168.279 57.9235 168.148 58.0918C168.016 58.26 167.852 58.4004 167.666 58.505L165.75 59.612C165.367 59.825 164.941 59.91 164.472 59.782C164.261 59.7245 164.064 59.6226 163.895 59.4831C163.726 59.3436 163.589 59.1697 163.493 58.973L155.189 45.429C154.849 44.876 154.38 44.62 153.741 44.62H149.952C149.483 44.62 149.1 44.79 148.759 45.089C148.461 45.429 148.291 45.813 148.291 46.281V58.164C148.291 58.632 148.12 59.016 147.78 59.314C147.482 59.654 147.056 59.825 146.587 59.825H144.373C143.905 59.825 143.521 59.655 143.223 59.314C143.057 59.1725 142.926 58.9958 142.837 58.7968C142.749 58.5979 142.706 58.3816 142.712 58.164V25.582C142.712 25.114 142.883 24.731 143.223 24.39C143.521 24.05 143.905 23.879 144.373 23.879H146.587C147.056 23.879 147.439 24.049 147.78 24.389C148.12 24.688 148.291 25.114 148.291 25.582V37.465C148.291 37.933 148.461 38.317 148.759 38.658C149.1 38.956 149.483 39.126 149.952 39.126H153.656C154.295 39.126 154.763 38.87 155.104 38.316L163.493 24.773C163.706 24.39 164.046 24.134 164.472 24.006C164.685 23.9395 164.909 23.9202 165.13 23.9496C165.351 23.9789 165.562 24.0562 165.75 24.176L167.666 25.242ZM189.043 23.921C189.426 23.921 189.767 24.049 190.022 24.347C190.278 24.603 190.405 24.943 190.405 25.284V58.504C190.405 58.888 190.278 59.186 190.022 59.442C189.767 59.697 189.426 59.825 189.043 59.825H186.19C186.016 59.83 185.842 59.7985 185.681 59.7326C185.52 59.6666 185.374 59.5676 185.253 59.442C185.131 59.3187 185.034 59.1724 184.968 59.0116C184.902 58.8508 184.869 58.6787 184.87 58.505V25.285C184.87 24.901 184.997 24.603 185.253 24.347C185.508 24.049 185.849 23.921 186.19 23.921H189.043ZM5.63799 76.265C5.63799 75.882 5.76599 75.541 6.06399 75.285C6.31999 75.03 6.65999 74.902 7.00099 74.902H29.144C29.527 74.902 29.825 75.03 30.081 75.285C30.336 75.541 30.464 75.882 30.464 76.265V79.118C30.464 79.502 30.336 79.8 30.081 80.055C29.9577 80.1775 29.8115 80.2744 29.6508 80.3403C29.49 80.4062 29.3178 80.4397 29.144 80.439H7.00099C6.61799 80.439 6.31999 80.311 6.06399 80.055C5.92836 79.9398 5.81985 79.7961 5.7462 79.6341C5.67256 79.4721 5.63561 79.2959 5.63799 79.118V76.265ZM24.97 25.582C24.97 25.114 25.14 24.731 25.439 24.39C25.779 24.05 26.163 23.879 26.631 23.879H28.846C29.314 23.879 29.697 24.049 30.038 24.389C30.336 24.688 30.506 25.114 30.506 25.582V58.164C30.506 58.632 30.336 59.016 30.038 59.314C29.698 59.654 29.314 59.825 28.846 59.825H26.63C26.162 59.825 25.778 59.655 25.438 59.314C25.286 59.1641 25.1662 58.9848 25.0857 58.7871C25.0053 58.5894 24.9659 58.3774 24.97 58.164V46.281C24.97 45.813 24.8 45.429 24.458 45.131C24.3165 44.9655 24.1398 44.8338 23.9408 44.7455C23.7418 44.6573 23.5256 44.6147 23.308 44.621H12.835C12.367 44.621 11.984 44.791 11.643 45.131C11.491 45.2809 11.3712 45.4601 11.2907 45.6578C11.2103 45.8555 11.1709 46.0676 11.175 46.281V58.164C11.175 58.632 11.005 59.016 10.664 59.314C10.365 59.654 9.93999 59.825 9.47099 59.825H7.25599C6.78799 59.825 6.40399 59.655 6.06399 59.314C5.91186 59.1641 5.79182 58.9849 5.71119 58.7872C5.63056 58.5895 5.59103 58.3774 5.59499 58.164V25.582C5.59499 25.114 5.76499 24.731 6.06399 24.39C6.40399 24.05 6.78799 23.879 7.25599 23.879H9.46999C9.93899 23.879 10.322 24.049 10.663 24.389C11.003 24.688 11.173 25.114 11.173 25.582V37.465C11.173 37.933 11.343 38.317 11.642 38.658C11.982 38.956 12.366 39.126 12.834 39.126H23.352C23.821 39.126 24.204 38.956 24.502 38.658C24.842 38.317 25.013 37.934 25.013 37.465V25.582H24.97ZM19.306 1.04996L19.051 0.922961C18.744 0.755172 18.3998 0.667236 18.05 0.667236C17.7002 0.667236 17.356 0.755172 17.049 0.922961L16.794 1.04996C12.067 3.47796 6.82899 5.30996 1.24999 6.54396C1.02621 6.59435 0.815825 6.69212 0.633019 6.83069C0.450213 6.96926 0.299234 7.1454 0.190255 7.34725C0.0812764 7.5491 0.0168305 7.77196 0.00126034 8.00082C-0.0143098 8.22968 0.0193577 8.45921 0.099994 8.67396L0.739994 10.42C0.919756 10.8824 1.25893 11.2654 1.69628 11.4998C2.13364 11.7341 2.64036 11.8044 3.12499 11.698C8.14899 10.548 12.919 8.92996 17.39 6.79996C17.773 6.62996 18.241 6.62996 18.625 6.79996C23.053 8.88696 27.823 10.505 32.847 11.655C33.87 11.868 34.891 11.357 35.232 10.378L35.871 8.63096C36.211 7.73696 35.658 6.71496 34.721 6.50096C29.271 5.30896 24.075 3.47796 19.306 1.05096V1.04996Z" fill="white"/>
</g>
<defs>
<clipPath id="clip0_174_42">
<rect width="191" height="80" fill="white" transform="translate(0 0.666992)"/>
</clipPath>
</defs>
</svg>
