<svg width="151" height="49" viewBox="0 0 151 49" fill="none" xmlns="http://www.w3.org/2000/svg">
<g clip-path="url(#clip0_174_49)">
<path fill-rule="evenodd" clip-rule="evenodd" d="M62.8462 12.241H67.5002L75.7202 32.998H70.9262L69.3391 28.735H60.7532L59.1942 32.998H54.4312L62.8462 12.241ZM80.9342 12.241H76.9352V15.828H80.9352L80.9342 12.241ZM80.9342 17.914H76.9352V32.998H80.9352L80.9342 17.914ZM87.0212 20.325H87.1092C88.0212 18.62 89.0492 17.738 90.8142 17.738C91.2542 17.738 91.5201 17.768 91.7542 17.855V21.355H91.6662C89.0502 21.09 87.1682 22.472 87.1682 25.647V32.998H83.1692V17.914H87.0212V20.325ZM103.545 12.241H99.5462V15.828H103.545V12.241ZM99.5462 17.914H103.545V32.998H99.5462V17.914ZM109.778 19.972H109.69V17.914H105.78V32.998H109.778V24.442C109.778 22.383 111.072 20.972 112.836 20.972C114.512 20.972 115.453 22.119 115.453 23.736V32.998H119.452V23.148C119.452 19.855 117.364 17.502 114.247 17.502C112.189 17.502 110.807 18.355 109.778 19.972ZM121.098 25.442C121.098 20.972 124.126 17.502 128.536 17.502C133.388 17.502 135.975 21.208 135.975 26.588H125.038C125.332 28.911 126.625 30.352 128.889 30.352C130.448 30.352 131.359 29.646 131.8 28.499H135.74C135.182 31.175 132.8 33.439 128.919 33.439C123.92 33.439 121.098 29.939 121.098 25.442ZM131.8 23.824H125.096C125.449 21.854 126.478 20.59 128.595 20.59C130.418 20.59 131.683 21.913 131.8 23.824ZM136.896 28.117H140.601C140.866 29.852 142.101 30.617 143.895 30.617C145.659 30.617 146.659 29.94 146.659 28.882C146.659 27.622 145.198 27.352 143.455 27.028C143.199 26.9811 142.944 26.9325 142.689 26.882C139.984 26.353 137.338 25.618 137.338 22.325C137.338 19.061 140.043 17.503 143.483 17.503C147.452 17.503 149.658 19.473 149.952 22.501H146.335C146.159 20.884 145.129 20.296 143.424 20.296C141.866 20.296 140.837 20.884 140.837 21.972C140.837 23.057 142.243 23.315 143.963 23.63C144.294 23.69 144.637 23.753 144.983 23.825C147.511 24.354 150.305 25.059 150.305 28.588C150.305 31.616 147.717 33.44 143.954 33.44C139.572 33.44 137.132 31.322 136.896 28.117ZM61.8992 25.236H68.1622L64.9872 16.414L61.9002 25.235L61.8992 25.236ZM97.3121 12.241H93.3121V32.997H97.3121V12.241Z" fill="white"/>
<path fill-rule="evenodd" clip-rule="evenodd" d="M49.5 24.672C49.5 37.932 38.762 48.667 25.507 48.667C12.25 48.667 1.5 37.931 1.5 24.672C1.5 11.413 12.25 0.666992 25.507 0.666992C38.763 0.666992 49.5 11.413 49.5 24.672ZM23.638 12.24C19.878 12.24 17.439 12.447 15.673 13.103C12.706 14.259 10.657 16.682 10.657 19.865C10.657 22.517 11.892 24.437 15.465 26.645C19.278 28.957 20.038 29.721 20.038 31.113C20.038 32.638 18.545 34.373 14.702 34.373C13.362 34.373 11.341 34.187 10.05 33.871L9.434 33.716C9.091 34.637 8.311 36.816 8.073 37.606L8.683 37.786C9.843 38.156 12.6 38.446 14.573 38.446C21.141 38.446 25.06 34.477 25.06 30.323C25.06 27.77 23.9 25.829 19.983 23.385C18.018 22.175 17.017 21.392 16.408 20.785C15.916 20.152 15.861 19.68 15.861 19.182C15.861 18.707 15.967 18.159 16.281 17.758C16.619 17.261 17.241 16.945 18.083 16.684C18.948 16.397 20.55 16.39 23.046 16.39H25.371L27.031 12.24H23.638ZM29.524 12.24H41.204C41.752 12.24 41.857 12.628 41.646 13.05C40.882 14.943 33.676 32.997 33.676 32.997H28.86C28.86 32.997 34.551 18.494 35.496 16.334C35.277 16.334 35.076 16.34 34.807 16.348C34.272 16.365 33.471 16.39 31.735 16.39H27.864L29.524 12.24Z" fill="white"/>
</g>
<defs>
<clipPath id="clip0_174_49">
<rect width="150" height="48" fill="white" transform="translate(0.5 0.666992)"/>
</clipPath>
</defs>
</svg>
