<svg width="311" height="129" viewBox="0 0 311 129" fill="none" xmlns="http://www.w3.org/2000/svg">
<rect width="311" height="128" transform="translate(0 0.666992)" fill="#3B3940"/>
<g clip-path="url(#clip0_174_41)">
<path d="M113.714 47.921C114.097 47.921 114.438 48.049 114.694 48.347C114.949 48.603 115.077 48.943 115.077 49.284V82.504C115.077 82.888 114.949 83.186 114.694 83.442C114.438 83.697 114.097 83.825 113.714 83.825H110.861C110.478 83.825 110.18 83.697 109.924 83.442C109.802 83.3186 109.705 83.1723 109.639 83.0116C109.574 82.8508 109.54 82.6786 109.541 82.505V49.285C109.541 48.901 109.669 48.603 109.924 48.347C110.18 48.049 110.52 47.921 110.861 47.921H113.714ZM157.404 47.921C157.872 47.921 158.256 48.091 158.596 48.432C158.894 48.731 159.065 49.156 159.065 49.625V82.206C159.065 82.675 158.895 83.058 158.596 83.356C158.256 83.697 157.872 83.868 157.404 83.868H135.857C135.389 83.868 135.005 83.698 134.707 83.357C134.542 83.2155 134.41 83.0387 134.322 82.8398C134.233 82.6408 134.191 82.4246 134.197 82.207V49.581C134.197 49.113 134.367 48.73 134.707 48.389C135.005 48.049 135.389 47.878 135.857 47.878H157.404V47.921ZM151.868 63.127C152.337 63.127 152.72 62.957 153.018 62.659C153.358 62.318 153.529 61.935 153.529 61.466V55.12C153.529 54.652 153.359 54.268 153.018 53.97C152.877 53.8045 152.7 53.6728 152.501 53.5845C152.302 53.4963 152.086 53.4537 151.868 53.46H141.35C140.882 53.46 140.499 53.63 140.158 53.97C140.006 54.1198 139.886 54.299 139.805 54.4967C139.725 54.6944 139.685 54.9065 139.689 55.12V61.466C139.689 61.934 139.859 62.318 140.158 62.659C140.498 62.957 140.882 63.127 141.35 63.127H151.868ZM151.868 78.332C152.337 78.332 152.72 78.162 153.018 77.863C153.358 77.523 153.529 77.139 153.529 76.671V70.325C153.529 69.856 153.359 69.473 153.018 69.175C152.877 69.0093 152.7 68.8774 152.501 68.789C152.302 68.7006 152.086 68.6579 151.868 68.664H141.35C140.882 68.664 140.499 68.834 140.158 69.174C140.006 69.3238 139.886 69.503 139.805 69.7007C139.725 69.8984 139.685 70.1105 139.689 70.324V76.671C139.689 77.139 139.859 77.523 140.158 77.863C140.498 78.161 140.882 78.332 141.35 78.332H151.868ZM182.315 47.921C182.698 47.921 183.039 48.049 183.295 48.347C183.55 48.603 183.678 48.943 183.678 49.284V82.504C183.678 82.888 183.55 83.186 183.295 83.442C183.039 83.697 182.698 83.825 182.315 83.825H179.462C179.079 83.825 178.781 83.697 178.525 83.442C178.278 83.1927 178.14 82.8557 178.142 82.505V49.285C178.142 48.901 178.27 48.603 178.525 48.347C178.781 48.049 179.121 47.921 179.462 47.921H182.315ZM227.666 49.242C228.049 49.455 228.305 49.795 228.433 50.222C228.56 50.69 228.518 51.116 228.262 51.499L219.916 64.958C219.618 65.511 219.618 66.065 219.916 66.618L228.262 80.248C228.475 80.631 228.56 81.057 228.433 81.525C228.376 81.7309 228.279 81.9235 228.148 82.0918C228.016 82.26 227.852 82.4004 227.666 82.505L225.75 83.612C225.367 83.825 224.941 83.91 224.472 83.782C224.261 83.7245 224.064 83.6226 223.895 83.4831C223.726 83.3436 223.589 83.1697 223.493 82.973L215.189 69.429C214.849 68.876 214.38 68.62 213.741 68.62H209.952C209.483 68.62 209.1 68.79 208.759 69.089C208.461 69.429 208.291 69.813 208.291 70.281V82.164C208.291 82.632 208.12 83.016 207.78 83.314C207.482 83.654 207.056 83.825 206.587 83.825H204.373C203.905 83.825 203.521 83.655 203.223 83.314C203.057 83.1725 202.926 82.9958 202.837 82.7968C202.749 82.5979 202.706 82.3816 202.712 82.164V49.582C202.712 49.114 202.883 48.731 203.223 48.39C203.521 48.05 203.905 47.879 204.373 47.879H206.587C207.056 47.879 207.439 48.049 207.78 48.389C208.12 48.688 208.291 49.114 208.291 49.582V61.465C208.291 61.933 208.461 62.317 208.759 62.658C209.1 62.956 209.483 63.126 209.952 63.126H213.656C214.295 63.126 214.763 62.87 215.104 62.316L223.493 48.773C223.706 48.39 224.046 48.134 224.472 48.006C224.685 47.9395 224.909 47.9202 225.13 47.9496C225.351 47.9789 225.562 48.0562 225.75 48.176L227.666 49.242ZM249.043 47.921C249.426 47.921 249.767 48.049 250.022 48.347C250.278 48.603 250.405 48.943 250.405 49.284V82.504C250.405 82.888 250.278 83.186 250.022 83.442C249.767 83.697 249.426 83.825 249.043 83.825H246.19C246.016 83.83 245.842 83.7985 245.681 83.7326C245.52 83.6666 245.374 83.5676 245.253 83.442C245.131 83.3187 245.034 83.1724 244.968 83.0116C244.902 82.8508 244.869 82.6787 244.87 82.505V49.285C244.87 48.901 244.997 48.603 245.253 48.347C245.508 48.049 245.849 47.921 246.19 47.921H249.043ZM65.638 100.265C65.638 99.882 65.766 99.541 66.064 99.285C66.32 99.03 66.66 98.902 67.001 98.902H89.144C89.527 98.902 89.825 99.03 90.081 99.285C90.336 99.541 90.464 99.882 90.464 100.265V103.118C90.464 103.502 90.336 103.8 90.081 104.055C89.9577 104.177 89.8115 104.274 89.6508 104.34C89.49 104.406 89.3178 104.44 89.144 104.439H67.001C66.618 104.439 66.32 104.311 66.064 104.055C65.9284 103.94 65.8198 103.796 65.7462 103.634C65.6726 103.472 65.6356 103.296 65.638 103.118V100.265ZM84.97 49.582C84.97 49.114 85.14 48.731 85.439 48.39C85.779 48.05 86.163 47.879 86.631 47.879H88.846C89.314 47.879 89.697 48.049 90.038 48.389C90.336 48.688 90.506 49.114 90.506 49.582V82.164C90.506 82.632 90.336 83.016 90.038 83.314C89.698 83.654 89.314 83.825 88.846 83.825H86.63C86.162 83.825 85.778 83.655 85.438 83.314C85.286 83.1641 85.1662 82.9848 85.0857 82.7871C85.0053 82.5894 84.9659 82.3774 84.97 82.164V70.281C84.97 69.813 84.8 69.429 84.458 69.131C84.3165 68.9655 84.1398 68.8338 83.9408 68.7455C83.7418 68.6573 83.5256 68.6147 83.308 68.621H72.835C72.367 68.621 71.984 68.791 71.643 69.131C71.491 69.2809 71.3712 69.4601 71.2907 69.6578C71.2103 69.8555 71.1709 70.0676 71.175 70.281V82.164C71.175 82.632 71.005 83.016 70.664 83.314C70.365 83.654 69.94 83.825 69.471 83.825H67.256C66.788 83.825 66.404 83.655 66.064 83.314C65.9119 83.1641 65.7918 82.9849 65.7112 82.7872C65.6306 82.5895 65.591 82.3774 65.595 82.164V49.582C65.595 49.114 65.765 48.731 66.064 48.39C66.404 48.05 66.788 47.879 67.256 47.879H69.47C69.939 47.879 70.322 48.049 70.663 48.389C71.003 48.688 71.173 49.114 71.173 49.582V61.465C71.173 61.933 71.343 62.317 71.642 62.658C71.982 62.956 72.366 63.126 72.834 63.126H83.352C83.821 63.126 84.204 62.956 84.502 62.658C84.842 62.317 85.013 61.934 85.013 61.465V49.582H84.97ZM79.306 25.05L79.051 24.923C78.744 24.7552 78.3998 24.6672 78.05 24.6672C77.7002 24.6672 77.356 24.7552 77.049 24.923L76.794 25.05C72.067 27.478 66.829 29.31 61.25 30.544C61.0262 30.5943 60.8158 30.6921 60.633 30.8307C60.4502 30.9693 60.2992 31.1454 60.1903 31.3472C60.0813 31.5491 60.0168 31.772 60.0013 32.0008C59.9857 32.2297 60.0194 32.4592 60.1 32.674L60.74 34.42C60.9198 34.8824 61.2589 35.2654 61.6963 35.4998C62.1336 35.7341 62.6404 35.8044 63.125 35.698C68.149 34.548 72.919 32.93 77.39 30.8C77.773 30.63 78.241 30.63 78.625 30.8C83.053 32.887 87.823 34.505 92.847 35.655C93.87 35.868 94.891 35.357 95.232 34.378L95.871 32.631C96.211 31.737 95.658 30.715 94.721 30.501C89.271 29.309 84.075 27.478 79.306 25.051V25.05Z" fill="white"/>
</g>
<defs>
<clipPath id="clip0_174_41">
<rect width="191" height="80" fill="white" transform="translate(60 24.667)"/>
</clipPath>
</defs>
</svg>
