<svg width="311" height="129" viewBox="0 0 311 129" fill="none" xmlns="http://www.w3.org/2000/svg">
<rect width="311" height="128" transform="translate(0 0.666992)" fill="#3B3940"/>
<g clip-path="url(#clip0_174_53)">
<path d="M127.775 98.167L126.625 104.593H127.575L127.831 103.052H129.081L129.35 104.593H130.306L129.156 98.167H127.775ZM127.931 102.203L128.431 99.2126H128.487L128.975 102.203H127.931ZM132.719 104.593H133.669V99.0739H134.938V104.593H135.881V98.167H132.719V104.592V104.593ZM139.45 98.167L138.294 104.593H139.244L139.506 103.052H140.75L141.019 104.593H141.981L140.825 98.167H139.45ZM139.606 102.203L140.1 99.2126H140.156L140.65 102.203H139.606ZM146.962 98.4132C146.69 98.2299 146.365 98.1431 146.037 98.167H144.394V104.592H145.337V102.388H146.037C146.367 102.412 146.695 102.319 146.962 102.125C147.176 101.947 147.32 101.699 147.369 101.424C147.439 101.046 147.47 100.66 147.463 100.275C147.472 99.881 147.439 99.4869 147.363 99.1001C147.312 98.8316 147.171 98.5885 146.962 98.412V98.4132ZM146.469 101.061C146.458 101.196 146.401 101.324 146.306 101.422C146.183 101.504 146.035 101.541 145.888 101.528H145.337V99.0357H145.888C146.035 99.0238 146.182 99.0609 146.306 99.1414C146.4 99.2376 146.458 99.3636 146.469 99.4976C146.505 99.7555 146.519 100.016 146.513 100.276C146.519 100.538 146.505 100.8 146.469 101.059V101.061ZM149.575 99.0432H150.625V104.593H151.575V99.042H152.625V98.167H149.575V99.042V99.0432ZM155.05 102.342H156.65V101.51H155.05V102.342ZM162.081 98.3626C161.743 98.1527 161.347 98.0574 160.95 98.0907C160.555 98.0572 160.161 98.1526 159.825 98.3626C159.571 98.5986 159.419 98.9236 159.4 99.2695C159.283 100.674 159.283 102.086 159.4 103.491C159.419 103.837 159.571 104.161 159.825 104.396C160.16 104.607 160.555 104.703 160.95 104.668C161.347 104.703 161.744 104.607 162.081 104.396C162.335 104.161 162.488 103.837 162.506 103.491C162.623 102.086 162.623 100.674 162.506 99.2695C162.488 98.9232 162.335 98.5976 162.081 98.3614V98.3626ZM161.6 103.079C161.602 103.291 161.541 103.5 161.425 103.678C161.286 103.774 161.118 103.818 160.95 103.803C160.784 103.82 160.617 103.776 160.481 103.678C160.363 103.501 160.301 103.292 160.306 103.079C160.275 102.761 160.256 102.196 160.256 101.378C160.256 100.561 160.275 99.997 160.306 99.6801C160.302 99.4673 160.363 99.2582 160.481 99.0814C160.617 98.9829 160.784 98.9383 160.95 98.9564C161.118 98.9406 161.286 98.9849 161.425 99.0814C161.541 99.2596 161.601 99.4677 161.6 99.6801C161.631 99.997 161.644 100.564 161.644 101.378C161.644 102.192 161.631 102.76 161.6 103.078V103.079ZM164.787 99.0432H165.844V104.593H166.794V99.042H167.844V98.167H164.787V99.042V99.0432ZM170.238 104.593H172.756V103.725H171.194V101.782H172.562V100.911H171.194V99.0364H172.756V98.167H170.238V104.592V104.593ZM184.281 101.334C184.23 101.061 184.086 100.814 183.875 100.634C183.607 100.44 183.28 100.347 182.95 100.371H182.25V98.167H181.3V104.592H182.95C183.275 104.617 183.6 104.53 183.869 104.346C184.081 104.172 184.225 103.928 184.275 103.658C184.351 103.271 184.385 102.877 184.375 102.483C184.383 102.098 184.351 101.712 184.281 101.333V101.334ZM183.381 103.263C183.371 103.399 183.311 103.525 183.212 103.619C183.091 103.701 182.946 103.738 182.8 103.725H182.25V101.229H182.8C182.946 101.215 183.092 101.253 183.212 101.335C183.312 101.431 183.372 101.559 183.381 101.696C183.417 101.956 183.432 102.219 183.425 102.481C183.432 102.742 183.417 103.003 183.381 103.262V103.263ZM177.569 98.167H175.675V102.408C175.684 102.727 175.669 103.047 175.631 103.364C175.632 103.429 175.616 103.493 175.586 103.55C175.555 103.608 175.511 103.656 175.456 103.692C175.292 103.752 175.118 103.779 174.944 103.773V104.593C175.341 104.613 175.739 104.561 176.119 104.44C176.235 104.376 176.333 104.284 176.405 104.172C176.477 104.06 176.521 103.933 176.531 103.8C176.604 103.189 176.633 102.574 176.619 101.959V99.0345H177.569V104.593H178.519V98.167H177.569ZM159.738 50.4889H151.263V45.0201H147.931V58.6901H151.263V53.222H159.738V58.6901H163.062V45.0201H159.738V50.4889ZM147.931 41.9795H163.062V41.3745H147.931V41.9795ZM155.5 30.5882L147.931 24.667V38.337H151.263V31.3745L155.5 34.692L159.738 31.3751V38.3376H163.062V24.667L155.5 30.5882ZM96.5062 84.2382H96.35L94.3188 72.3564H90.8125V87.782H92.975V75.5645H93.1125L95.2125 87.7845H97.5375L99.6312 75.5645H99.7688V87.7845H101.981V72.3589H98.5375L96.5062 84.2382ZM104.125 87.782H110.175V85.6964H106.425V81.0345H109.706V78.947H106.425V74.4426H110.175V72.3589H104.125V87.7845V87.782ZM124.856 72.3564H122.531L120.388 78.8814H119.362V72.3589H117.081V78.8839H116.056L113.912 72.3589H111.588L114.269 79.847L111.569 87.7845H113.956L116.056 81.0589H117.081V87.7845H119.362V81.0589H120.388L122.487 87.7845H124.881L122.175 79.847L124.856 72.3564ZM150.869 78.9032H147.831V72.3589H145.55V87.7845H147.831V81.0807H150.869V87.7845H153.144V72.3589H150.869V78.9057V78.9032ZM157.231 72.3564L154.462 87.782H156.744L157.369 84.0814H160.363L161.012 87.782H163.306L160.544 72.3564H157.231ZM157.612 82.0439L158.8 74.8695H158.931L160.112 82.0439H157.612ZM170.794 72.9539C170.145 72.5111 169.365 72.3013 168.581 72.3589H164.625V87.7845H166.906V82.4926H168.581C169.373 82.551 170.161 82.3298 170.806 81.8676C171.311 81.4328 171.652 80.8395 171.775 80.1851C172.079 78.3362 172.075 76.4496 171.763 74.602C171.64 73.957 171.298 73.3745 170.794 72.9539ZM169.619 79.3089C169.592 79.6348 169.45 79.9407 169.219 80.172C168.927 80.3705 168.576 80.4619 168.225 80.4307H166.906V74.4426H168.225C168.576 74.4115 168.927 74.5031 169.219 74.702C169.449 74.9299 169.59 75.2319 169.619 75.5545C169.7 76.176 169.734 76.8028 169.719 77.4295C169.733 78.0576 169.7 78.6858 169.619 79.3089ZM179.85 72.8295C179.013 72.4025 178.087 72.1799 177.147 72.1799C176.207 72.1799 175.281 72.4025 174.444 72.8295C173.833 73.3943 173.466 74.1741 173.419 75.0045C173.244 76.6875 173.173 78.3797 173.206 80.0714C173.173 81.7631 173.244 83.4552 173.419 85.1382C173.466 85.9687 173.833 86.7485 174.444 87.3132C175.281 87.7405 176.207 87.9632 177.147 87.9632C178.087 87.9632 179.013 87.7405 179.85 87.3132C180.46 86.7477 180.83 85.9688 180.881 85.1382C181.05 83.4548 181.119 81.7629 181.088 80.0714C181.119 78.3798 181.05 76.6879 180.881 75.0045C180.829 74.174 180.46 73.3952 179.85 72.8295ZM178.7 84.1532C178.712 84.6651 178.564 85.1679 178.275 85.5907C177.943 85.8211 177.539 85.9247 177.137 85.8826C176.737 85.9261 176.335 85.8223 176.006 85.5907C175.729 85.1632 175.585 84.6628 175.594 84.1532C175.519 83.3907 175.481 82.0301 175.481 80.0714C175.481 78.1126 175.519 76.7522 175.594 75.9901C175.585 75.4806 175.729 74.98 176.006 74.5526C176.335 74.3209 176.737 74.2172 177.137 74.2607C177.539 74.2187 177.943 74.3223 178.275 74.5526C178.564 74.9752 178.713 75.4782 178.7 75.9901C178.775 76.7526 178.812 78.113 178.812 80.0714C178.812 82.0297 178.775 83.3903 178.7 84.1532ZM199.031 78.9032H195.994V72.3589H193.713V87.7845H195.994V81.0807H199.031V87.7845H201.306V72.3589H199.031V78.9057V78.9032ZM205.394 72.3564L202.625 87.782H204.906L205.531 84.0814H208.525L209.169 87.782H211.469L208.7 72.3564H205.394ZM205.775 82.0439L206.962 74.8695H207.094L208.275 82.0439H205.775ZM216.144 72.3564C215.365 72.3015 214.589 72.4988 213.931 72.9189C213.429 73.3132 213.086 73.8745 212.963 74.5007C212.785 75.3896 212.706 76.2952 212.725 77.2014C212.705 78.1356 212.795 79.069 212.994 79.982C213.065 80.3054 213.201 80.6112 213.393 80.8808C213.585 81.1505 213.83 81.3786 214.113 81.5514L212.438 87.7845H214.781L216.188 82.0439H217.912V87.7845H220.188V72.3589H216.144V72.3564ZM217.912 80.0232H216.5C216.151 80.0533 215.801 79.9667 215.506 79.777C215.282 79.564 215.14 79.2784 215.106 78.9707C215.025 78.3911 214.992 77.8058 215.006 77.2207C214.992 76.6436 215.026 76.0662 215.106 75.4945C215.142 75.1847 215.288 74.8982 215.519 74.6882C215.81 74.4996 216.154 74.4118 216.5 74.4382H217.912V80.0214V80.0232ZM140.375 78.8632L138.519 72.3564H136.237L139.344 82.4764L137.831 87.782H140.112L144.506 72.3564H142.225L140.375 78.8632ZM132.731 72.3564H129.419L127.006 85.8076H125.912V87.782H125.906V89.7557H128.188V87.782H133.956V89.7557H136.231V87.782H136.237V85.8076H135.144L132.731 72.3564ZM129.244 85.8076L130.987 74.8701H131.119L132.881 85.8076H129.244ZM188.887 72.3564H185.581L183.169 85.8076H182.075V87.782H182.069V89.7557H184.35V87.782H190.119V89.7557H192.394V87.782H192.4V85.8076H191.306L188.887 72.3564ZM185.406 85.8076L187.15 74.8701H187.281L189.044 85.8076H185.406Z" fill="white"/>
</g>
<defs>
<clipPath id="clip0_174_53">
<rect width="129.375" height="80" fill="white" transform="translate(90.8125 24.667)"/>
</clipPath>
</defs>
</svg>
