<svg width="311" height="129" viewBox="0 0 311 129" fill="none" xmlns="http://www.w3.org/2000/svg">
<rect width="311" height="128" transform="translate(0 0.666992)" fill="#3B3940"/>
<g clip-path="url(#clip0_174_48)">
<path fill-rule="evenodd" clip-rule="evenodd" d="M142.846 52.241H147.5L155.72 72.998H150.926L149.339 68.735H140.753L139.194 72.998H134.431L142.846 52.241ZM160.934 52.241H156.935V55.828H160.935L160.934 52.241ZM160.934 57.914H156.935V72.998H160.935L160.934 57.914ZM167.021 60.325H167.109C168.021 58.62 169.049 57.738 170.814 57.738C171.254 57.738 171.52 57.768 171.754 57.855V61.355H171.666C169.05 61.09 167.168 62.472 167.168 65.647V72.998H163.169V57.914H167.021V60.325ZM183.545 52.241H179.546V55.828H183.545V52.241ZM179.546 57.914H183.545V72.998H179.546V57.914ZM189.778 59.972H189.69V57.914H185.78V72.998H189.778V64.442C189.778 62.383 191.072 60.972 192.836 60.972C194.512 60.972 195.453 62.119 195.453 63.736V72.998H199.452V63.148C199.452 59.855 197.364 57.502 194.247 57.502C192.189 57.502 190.807 58.355 189.778 59.972ZM201.098 65.442C201.098 60.972 204.126 57.502 208.536 57.502C213.388 57.502 215.975 61.208 215.975 66.588H205.038C205.332 68.911 206.625 70.352 208.889 70.352C210.448 70.352 211.359 69.646 211.8 68.499H215.74C215.182 71.175 212.8 73.439 208.919 73.439C203.92 73.439 201.098 69.939 201.098 65.442ZM211.8 63.824H205.096C205.449 61.854 206.478 60.59 208.595 60.59C210.418 60.59 211.683 61.913 211.8 63.824ZM216.896 68.117H220.601C220.866 69.852 222.101 70.617 223.895 70.617C225.659 70.617 226.659 69.94 226.659 68.882C226.659 67.622 225.198 67.352 223.455 67.028C223.199 66.9811 222.944 66.9325 222.689 66.882C219.984 66.353 217.338 65.618 217.338 62.325C217.338 59.061 220.043 57.503 223.483 57.503C227.452 57.503 229.658 59.473 229.952 62.501H226.335C226.159 60.884 225.129 60.296 223.424 60.296C221.866 60.296 220.837 60.884 220.837 61.972C220.837 63.057 222.243 63.315 223.963 63.63C224.294 63.69 224.637 63.753 224.983 63.825C227.511 64.354 230.305 65.059 230.305 68.588C230.305 71.616 227.717 73.44 223.954 73.44C219.572 73.44 217.132 71.322 216.896 68.117ZM141.899 65.236H148.162L144.987 56.414L141.9 65.235L141.899 65.236ZM177.312 52.241H173.312V72.997H177.312V52.241Z" fill="white"/>
<path fill-rule="evenodd" clip-rule="evenodd" d="M129.5 64.672C129.5 77.932 118.762 88.667 105.507 88.667C92.25 88.667 81.5 77.931 81.5 64.672C81.5 51.413 92.25 40.667 105.507 40.667C118.763 40.667 129.5 51.413 129.5 64.672ZM103.638 52.24C99.878 52.24 97.439 52.447 95.673 53.103C92.706 54.259 90.657 56.682 90.657 59.865C90.657 62.517 91.892 64.437 95.465 66.645C99.278 68.957 100.038 69.721 100.038 71.113C100.038 72.638 98.545 74.373 94.702 74.373C93.362 74.373 91.341 74.187 90.05 73.871L89.434 73.716C89.091 74.637 88.311 76.816 88.073 77.606L88.683 77.786C89.843 78.156 92.6 78.446 94.573 78.446C101.141 78.446 105.06 74.477 105.06 70.323C105.06 67.77 103.9 65.829 99.983 63.385C98.018 62.175 97.017 61.392 96.408 60.785C95.916 60.152 95.861 59.68 95.861 59.182C95.861 58.707 95.967 58.159 96.281 57.758C96.619 57.261 97.241 56.945 98.083 56.684C98.948 56.397 100.55 56.39 103.046 56.39H105.371L107.031 52.24H103.638ZM109.524 52.24H121.204C121.752 52.24 121.857 52.628 121.646 53.05C120.882 54.943 113.676 72.997 113.676 72.997H108.86C108.86 72.997 114.551 58.494 115.496 56.334C115.277 56.334 115.076 56.34 114.807 56.348C114.272 56.365 113.471 56.39 111.735 56.39H107.864L109.524 52.24Z" fill="white"/>
</g>
<defs>
<clipPath id="clip0_174_48">
<rect width="150" height="48" fill="white" transform="translate(80.5 40.667)"/>
</clipPath>
</defs>
</svg>
