<svg width="40" height="41" viewBox="0 0 40 41" fill="none" xmlns="http://www.w3.org/2000/svg">
<rect y="0.583496" width="40" height="40" fill="white" fill-opacity="0.1"/>
<path d="M20 12.3907C22.6506 12.3907 23.0121 12.3907 24.0964 12.3907C25.0602 12.3907 25.5422 12.6317 25.9036 12.7522C26.3855 12.9931 26.747 13.1136 27.1084 13.4751C27.4699 13.8365 27.7108 14.198 27.8313 14.6799C27.9518 15.0413 28.0723 15.5233 28.1928 16.4871C28.1928 17.5714 28.1928 17.8124 28.1928 20.5835C28.1928 23.3546 28.1928 23.5955 28.1928 24.6799C28.1928 25.6437 27.9518 26.1257 27.8313 26.4871C27.5904 26.969 27.4699 27.3305 27.1084 27.6919C26.747 28.0534 26.3855 28.2943 25.9036 28.4148C25.5422 28.5353 25.0602 28.6558 24.0964 28.7763C23.0121 28.7763 22.7711 28.7763 20 28.7763C17.2289 28.7763 16.988 28.7763 15.9036 28.7763C14.9398 28.7763 14.4578 28.5353 14.0964 28.4148C13.6145 28.1739 13.253 28.0534 12.8916 27.6919C12.5301 27.3305 12.2892 26.969 12.1687 26.4871C12.0482 26.1257 11.9277 25.6437 11.8072 24.6799C11.8072 23.5955 11.8072 23.3546 11.8072 20.5835C11.8072 17.8124 11.8072 17.5714 11.8072 16.4871C11.8072 15.5233 12.0482 15.0413 12.1687 14.6799C12.4096 14.198 12.5301 13.8365 12.8916 13.4751C13.253 13.1136 13.6145 12.8727 14.0964 12.7522C14.4578 12.6317 14.9398 12.5112 15.9036 12.3907C16.988 12.3907 17.3494 12.3907 20 12.3907ZM20 10.5835C17.2289 10.5835 16.988 10.5835 15.9036 10.5835C14.8193 10.5835 14.0964 10.8245 13.494 11.0654C12.8916 11.3064 12.2892 11.6678 11.6867 12.2702C11.0843 12.8727 10.8434 13.3546 10.4819 14.0775C10.241 14.6799 10.1205 15.4028 10 16.4871C10 17.5714 10 17.9329 10 20.5835C10 23.3546 10 23.5955 10 24.6799C10 25.7642 10.241 26.4871 10.4819 27.0895C10.7229 27.6919 11.0843 28.2943 11.6867 28.8968C12.2892 29.4992 12.7711 29.7401 13.494 30.1016C14.0964 30.3425 14.8193 30.463 15.9036 30.5835C16.988 30.5835 17.3494 30.5835 20 30.5835C22.6506 30.5835 23.0121 30.5835 24.0964 30.5835C25.1807 30.5835 25.9036 30.3425 26.506 30.1016C27.1084 29.8606 27.7108 29.4992 28.3133 28.8968C28.9157 28.2943 29.1566 27.8124 29.5181 27.0895C29.759 26.4871 29.8795 25.7642 30 24.6799C30 23.5955 30 23.2341 30 20.5835C30 17.9329 30 17.5714 30 16.4871C30 15.4028 29.759 14.6799 29.5181 14.0775C29.2771 13.4751 28.9157 12.8727 28.3133 12.2702C27.7108 11.6678 27.2289 11.4269 26.506 11.0654C25.9036 10.8245 25.1807 10.704 24.0964 10.5835C23.0121 10.5835 22.7711 10.5835 20 10.5835Z" fill="white"/>
<path d="M20 15.4028C17.1084 15.4028 14.8193 17.6919 14.8193 20.5835C14.8193 23.4751 17.1084 25.7642 20 25.7642C22.8916 25.7642 25.1807 23.4751 25.1807 20.5835C25.1807 17.6919 22.8916 15.4028 20 15.4028ZM20 23.957C18.1928 23.957 16.6265 22.5112 16.6265 20.5835C16.6265 18.7763 18.0723 17.21 20 17.21C21.8072 17.21 23.3735 18.6558 23.3735 20.5835C23.3735 22.3907 21.8072 23.957 20 23.957Z" fill="white"/>
<path d="M25.3012 16.4871C25.9666 16.4871 26.506 15.9477 26.506 15.2823C26.506 14.6169 25.9666 14.0775 25.3012 14.0775C24.6358 14.0775 24.0964 14.6169 24.0964 15.2823C24.0964 15.9477 24.6358 16.4871 25.3012 16.4871Z" fill="white"/>
</svg>
