<svg width="200" height="118" viewBox="0 0 200 118" fill="none" xmlns="http://www.w3.org/2000/svg">
<g clip-path="url(#clip0_935_639)">
<path d="M128.735 16.3311C128.735 32.1717 123.549 45.4015 113.177 55.9854C103.016 66.3576 90.6333 71.7906 76.0275 72.3198C75.0044 75.1775 73.8049 77.9293 72.4643 80.5753C71.1236 83.2565 69.6419 85.8672 68.019 88.4073C64.738 93.4523 61.7746 96.7686 59.1286 98.3915C79.7319 107.67 95.0432 112.292 105.027 112.292C114.729 112.292 119.598 109.187 119.598 102.978C119.598 101.214 118.892 99.5204 117.516 97.827C116.917 97.0155 116.317 96.2394 115.717 95.5338C115.082 94.7929 114.482 94.0873 113.918 93.3465C113.777 92.9231 113.706 92.6056 113.706 92.4645C113.706 92.0411 113.918 91.7942 114.376 91.7942C114.588 91.7942 114.87 91.9 115.258 92.1117C120.233 95.9924 122.702 99.5204 122.702 102.731C122.702 112.574 115.47 117.513 101.005 117.513C93.4203 117.513 85.5177 115.749 77.3329 112.256C76.9095 112.115 74.8633 111.092 71.1942 109.187C67.5251 107.282 62.1979 104.53 55.2126 100.967C47.9097 105.624 40.8185 108.058 33.9742 108.199C28.0473 108.34 22.4731 107.458 17.2164 105.553C11.36 103.436 7.02064 100.508 4.16299 96.8039C1.3759 93.2054 0 88.7954 0 83.6093C0 77.6118 1.79926 73.3077 5.3625 70.697C9.38437 67.5571 14.8174 67.9099 21.6969 71.7906C23.1434 72.6726 24.9074 73.8016 26.9183 75.248C28.9293 76.6592 31.2224 78.4232 33.7626 80.4694C37.7139 83.5387 40.7832 85.9378 42.9705 87.7017C45.1579 89.4657 46.5338 90.5241 47.1335 90.8769C52.108 86.2906 56.3768 79.658 59.94 71.0498C51.1907 69.2152 44.3817 65.405 39.5484 59.5486C35.2443 54.2214 33.0923 48.0475 33.0923 41.0268C33.0923 35.241 34.6093 29.6668 37.6786 24.269C40.8185 18.9418 45.1932 14.673 50.8379 11.4625C50.979 11.392 51.1554 11.3567 51.4024 11.3567C52.1432 11.3567 52.496 11.7095 52.496 12.4504C52.496 12.8032 52.3196 13.1207 51.9315 13.3324C47.0982 15.9783 43.3233 19.7532 40.5362 24.7277C37.9961 29.2435 36.6908 34.1473 36.6908 39.404C36.6908 46.2129 38.7017 52.1752 42.7236 57.3613C47.0277 63.0413 53.0958 66.8515 60.9278 68.7566C61.6687 66.9221 62.7271 63.7822 64.103 59.337C65.4789 54.8917 67.2076 49.0353 69.2538 41.803C70.8767 36.1935 72.4995 31.2191 74.1224 26.915C75.7806 22.6109 77.5092 18.9065 79.3438 15.8372C84.7416 6.48812 91.1272 1.90178 98.5006 2.0429C99.6648 2.11346 100.758 2.25457 101.746 2.43097C102.734 2.60737 103.651 2.88961 104.533 3.2424C108.449 1.5137 112.683 0.666992 117.128 0.666992C120.409 0.666992 123.267 2.50153 125.666 6.13533C127.712 9.34577 128.735 12.7679 128.735 16.3311ZM49.2856 99.0618C48.5447 98.6384 47.7686 98.1092 46.8866 97.5447C46.0046 96.945 45.052 96.31 44.0289 95.5691C38.6311 98.9912 32.9511 100.72 27.0594 100.72C24.2018 100.72 21.2383 100.332 18.169 99.5204C17.8868 99.4499 17.7104 99.3087 17.6045 99.097C17.4634 98.8148 17.4634 98.6031 17.6045 98.4267C17.7456 98.2151 17.922 98.1445 18.169 98.2151C19.6154 98.4973 21.0619 98.709 22.4378 98.8854C23.8137 99.0265 25.1896 99.097 26.495 99.097C32.4219 99.097 37.7492 97.6153 42.4766 94.6165C39.9365 92.782 37.3964 90.9475 34.8562 89.1482C32.3514 87.3137 29.8113 85.4791 27.2358 83.6799C19.933 79.023 14.3941 76.6592 10.5839 76.6592C5.46834 76.6592 2.92821 79.1288 2.92821 84.1032C2.92821 87.0314 4.02187 90.2772 6.20921 93.8404C8.39654 97.3331 11.6423 100.05 15.9464 101.955C19.8977 103.789 24.4135 104.706 29.529 104.706C37.0436 104.636 43.6056 102.766 49.2856 99.0618ZM48.7564 92.0411C49.7795 92.782 50.7673 93.4523 51.7199 94.1226C52.6724 94.7929 53.625 95.3927 54.5775 95.9924C56.4826 95.7102 59.1991 92.6056 62.7977 86.6786C65.867 81.5631 68.1602 76.7298 69.7125 72.214C68.5482 72.1434 67.4193 72.0729 66.3256 72.0023C65.232 71.9318 64.1736 71.8259 63.1505 71.6848C59.2344 80.2225 54.4364 86.9961 48.7564 92.0411ZM64.103 69.4622C66.1492 69.815 68.2307 70.0619 70.3475 70.1325L70.5592 69.4622C70.8414 68.7213 71.5823 66.4987 72.8171 62.7944C74.0166 59.0547 75.6747 53.7628 77.7915 46.9185C79.4849 41.5913 80.9667 37.0755 82.272 33.3712C83.5773 29.6668 84.671 26.7739 85.553 24.6571C89.7866 14.8141 95.5724 7.93459 102.875 4.05383C101.711 3.70104 100.229 3.4188 98.5006 3.27768C91.5505 3.13656 85.7294 7.75819 80.9667 17.1073C79.5202 20.106 78.0032 23.7398 76.4861 28.0792C74.9691 32.3833 73.4521 37.393 72.0056 43.0731C68.6894 55.7737 66.0787 64.5936 64.103 69.4622ZM124.008 16.8956C124.008 7.82875 121.362 3.31296 116.105 3.31296C113.847 3.31296 111.307 4.26551 108.555 6.17061C110.672 8.64018 111.73 11.7448 111.73 15.4844C111.73 19.6474 110.425 23.634 107.779 27.4089C104.921 31.5719 101.041 34.5707 96.1722 36.4052C95.7488 36.5463 95.4313 36.4405 95.2902 36.0877C95.149 35.7349 95.2549 35.4174 95.6077 35.2057C99.9118 33.2301 103.404 30.196 106.015 26.1036C108.485 22.2934 109.755 18.4479 109.755 14.4966C109.755 11.4273 108.943 8.9577 107.356 7.0526C102.17 11.0745 97.7597 16.9662 94.0907 24.6924C92.0444 29.0671 89.8571 34.1826 87.5287 40.039C85.2002 45.8954 82.6954 52.5633 80.0847 60.0778L76.592 70.0619C89.963 69.3916 101.288 63.6763 110.566 52.8455C119.527 42.2969 124.008 30.3371 124.008 16.8956Z" fill="white" fill-opacity="0.4"/>
<path d="M67.7015 42.7556H64.6675V61.6655H67.1371H67.7015H77.6504V58.5961H67.7015V42.7556Z" fill="white"/>
<path d="M115.4 54.0451C115.4 56.6911 113.247 58.8078 110.637 58.8078C107.991 58.8078 105.874 56.6558 105.874 54.0451V42.7556H102.805V54.0451C102.805 58.3492 106.297 61.8772 110.637 61.8772C114.941 61.8772 118.469 58.3845 118.469 54.0451V42.7556H115.4V54.0451Z" fill="white"/>
<path d="M89.1516 42.5085C83.7891 42.5085 79.4497 46.8479 79.4497 52.2104C79.4497 57.5729 83.7891 61.9123 89.1516 61.9123C94.5141 61.9123 98.8535 57.5729 98.8535 52.2104C98.8535 46.8479 94.5141 42.5085 89.1516 42.5085ZM89.1516 58.843C85.5178 58.843 82.5543 55.8795 82.5543 52.2457C82.5543 48.6119 85.5178 45.6484 89.1516 45.6484C92.7854 45.6484 95.7489 48.6119 95.7489 52.2457C95.7489 55.8795 92.7854 58.843 89.1516 58.843Z" fill="white"/>
<path d="M129.229 42.7556L120.903 61.6655H124.22L126.195 57.185H135.297L137.273 61.6655H140.589L132.299 42.7556H129.229ZM127.536 54.1156L130.746 46.8128L133.957 54.1156H127.536Z" fill="white"/>
<path d="M156.994 55.9149L146.939 42.7556H143.87V61.6655H146.939V48.5062L156.994 61.6655H160.028V42.7556H156.994V55.9149Z" fill="white"/>
<path d="M200 45.8249V42.7556H189.098H186.629H186.064V61.6655H186.629H189.098H200V58.5961H189.098V53.7276H198.765V50.6935H189.098V45.8249H200Z" fill="white"/>
<path d="M179.855 51.2933H178.444H173.646V54.1862H178.444V57.185C177.28 58.2081 175.763 58.8431 174.069 58.8431C170.436 58.8431 167.472 55.8796 167.472 52.2458C167.472 48.612 170.436 45.6486 174.069 45.6486C175.939 45.6486 177.633 46.4247 178.867 47.6948L180.914 45.331C179.15 43.6023 176.751 42.5439 174.105 42.5439C168.742 42.5439 164.403 46.8833 164.403 52.2458C164.403 57.6083 168.742 61.9477 174.105 61.9477C177.103 61.9477 179.82 60.5718 181.584 58.4198V58.067V51.3286H180.631H179.855V51.2933Z" fill="white"/>
<path d="M71.1587 70.4149H71.9701V75.4246H71.1587V76.095H73.9458V75.4246H73.1344V70.4149H73.9458V69.7446H71.1587V70.4149Z" fill="white"/>
<path d="M81.6368 70.4149H82.4482V73.9782L82.4835 74.4721L82.166 73.9429L79.0614 69.7799V69.7446H77.1562V70.4149H77.9677V75.4246H77.1562V76.095H79.4847V75.4246H78.7086V71.2617L78.638 70.9441L78.885 71.3322L82.4482 76.1655L82.4835 76.2008H83.1891V70.4149H84.0005V69.7446H81.6368V70.4149Z" fill="white"/>
<path d="M86.9639 71.7556H87.7753V70.5561L87.8811 70.4149H89.3276V75.4246H88.4456V76.095H91.4091V75.4246H90.4918V70.4149H91.9383L92.0794 70.5561V71.7556H92.8908V69.7446H86.9639V71.7556Z" fill="white"/>
<path d="M100.123 75.2835L99.9822 75.4246H97.7949V73.202H99.1708L99.2413 73.2726V73.6959H99.9822V72.0378H99.2413V72.4612L99.1708 72.5317H97.7949V70.4149H99.8411L99.9822 70.5561V71.3675H100.723V69.7446H95.8545V70.4149H96.6306V75.4246H95.8545V76.095H100.864V74.4015H100.123V75.2835Z" fill="white"/>
<path d="M107.99 73.2725C108.378 73.1314 108.696 72.9197 108.943 72.6375C109.225 72.32 109.366 71.9319 109.366 71.5086C109.366 71.191 109.296 70.9088 109.19 70.6618C109.049 70.4149 108.872 70.2385 108.661 70.0974C108.449 69.9562 108.202 69.8504 107.885 69.7798C107.32 69.6387 106.685 69.674 106.015 69.7093C105.697 69.7446 105.415 69.7446 105.168 69.7446H104.18V70.4149H104.992V75.4246H104.18V76.0949H106.897V75.4246H106.121V73.4489H106.897L108.661 76.0949H110.213V75.4246H109.613L107.99 73.2725ZM108.131 71.5086C108.131 71.8966 108.026 72.2141 107.779 72.4611C107.532 72.7081 107.214 72.8139 106.791 72.8139H106.191V70.3796C106.262 70.3796 106.332 70.3796 106.403 70.3443C106.509 70.3443 106.614 70.3443 106.791 70.3443C107.214 70.3443 107.567 70.4502 107.814 70.6266C107.99 70.803 108.131 71.1205 108.131 71.5086Z" fill="white"/>
<path d="M113.247 70.4149H114.058V75.4246H113.247V76.095H116.034V75.4246H115.223V70.4149H116.034V69.7446H113.247V70.4149Z" fill="white"/>
<path d="M125.101 70.5913C124.819 70.3091 124.466 70.0621 124.078 69.921C123.69 69.7446 123.231 69.6741 122.702 69.6741C122.208 69.6741 121.75 69.7446 121.326 69.921C120.938 70.0974 120.585 70.3091 120.303 70.5913C120.021 70.8736 119.809 71.2264 119.668 71.6497C119.527 72.0378 119.457 72.4964 119.457 72.9551C119.457 73.4137 119.527 73.8723 119.668 74.2604C119.809 74.6485 120.021 75.0013 120.303 75.3188C120.585 75.601 120.903 75.848 121.326 75.9891C121.714 76.1655 122.173 76.2361 122.702 76.2361C123.196 76.2361 123.655 76.1655 124.078 75.9891C124.466 75.8127 124.819 75.601 125.101 75.3188C125.384 75.0366 125.595 74.6838 125.736 74.2604C125.877 73.8723 125.948 73.4137 125.948 72.9551C125.948 72.4964 125.877 72.0378 125.736 71.6497C125.595 71.2264 125.384 70.8736 125.101 70.5913ZM122.808 75.5305C122.455 75.5305 122.173 75.4599 121.891 75.3188C121.644 75.1777 121.432 75.0013 121.256 74.7896C121.079 74.5427 120.974 74.2957 120.868 73.9782C120.797 73.6607 120.727 73.3079 120.727 72.9551C120.727 72.6023 120.762 72.2495 120.832 71.932C120.903 71.6144 121.009 71.3322 121.15 71.1205C121.291 70.9089 121.503 70.6972 121.714 70.5913C121.961 70.4502 122.244 70.3797 122.561 70.3797C122.914 70.3797 123.231 70.4502 123.478 70.5913C123.725 70.7325 123.937 70.9089 124.113 71.1205C124.29 71.3675 124.396 71.6144 124.502 71.932C124.572 72.2495 124.643 72.6023 124.643 72.9551C124.643 73.3079 124.607 73.6607 124.537 73.9782C124.466 74.2957 124.325 74.5779 124.184 74.7896C124.043 75.0013 123.831 75.213 123.584 75.3188C123.373 75.4599 123.126 75.5305 122.808 75.5305Z" fill="white"/>
<path d="M133.039 73.2725C133.427 73.1314 133.745 72.9197 133.992 72.6375C134.274 72.32 134.415 71.9319 134.415 71.5086C134.415 71.191 134.345 70.9088 134.239 70.6618C134.098 70.4149 133.921 70.2385 133.71 70.0974C133.498 69.9562 133.251 69.8504 132.933 69.7798C132.369 69.6387 131.734 69.674 131.064 69.7093C130.746 69.7446 130.464 69.7446 130.217 69.7446H129.229V70.4149H130.04V75.4246H129.229V76.0949H131.946V75.4246H131.169V73.4489H131.946L133.71 76.0949H135.262V75.4246H134.662L133.039 73.2725ZM133.145 71.5086C133.145 71.8966 133.039 72.2141 132.792 72.4611C132.545 72.7081 132.228 72.8139 131.804 72.8139H131.205V70.3796C131.275 70.3796 131.346 70.3796 131.416 70.3443C131.522 70.3443 131.628 70.3443 131.804 70.3443C132.228 70.3443 132.581 70.4502 132.828 70.6266C133.039 70.803 133.145 71.1205 133.145 71.5086Z" fill="white"/>
<path d="M146.974 72.9197C146.728 72.7786 146.445 72.6374 146.163 72.4963C145.881 72.3905 145.634 72.2494 145.387 72.1082C145.14 71.9671 144.964 71.826 144.787 71.6849C144.646 71.5438 144.575 71.3674 144.575 71.1557C144.575 70.8735 144.646 70.6971 144.858 70.5559C145.034 70.4148 145.316 70.3443 145.634 70.3443C145.846 70.3443 146.057 70.3443 146.234 70.3795C146.41 70.4148 146.551 70.4148 146.657 70.4854L146.763 70.6618V71.6849H147.504V70.0267L147.433 69.9915C147.221 69.8856 146.975 69.8151 146.657 69.7798C146.375 69.7092 145.987 69.7092 145.599 69.7092C144.928 69.7092 144.399 69.8503 144.011 70.1326C143.623 70.4148 143.411 70.8382 143.411 71.3674C143.411 71.7202 143.482 72.0377 143.658 72.2494C143.835 72.4963 144.046 72.6727 144.293 72.8491C144.54 73.0255 144.822 73.1666 145.105 73.2725C145.387 73.3783 145.634 73.5194 145.881 73.6253C146.128 73.7311 146.304 73.8722 146.445 74.0486C146.586 74.1897 146.657 74.3661 146.657 74.5778C146.657 74.7542 146.622 74.8953 146.551 75.0364C146.481 75.1423 146.375 75.2481 146.269 75.354C146.128 75.4245 145.987 75.4951 145.81 75.5304C145.457 75.6009 144.999 75.6009 144.646 75.5304C144.47 75.4951 144.329 75.4245 144.258 75.354L144.117 75.1776V74.0839H143.376V75.8126L143.411 75.8479C143.552 75.9537 143.799 76.0596 144.117 76.1301C144.434 76.236 144.787 76.2712 145.211 76.2712C145.987 76.2712 146.622 76.1301 147.08 75.8126C147.539 75.4951 147.786 75.0365 147.786 74.4367C147.786 74.0839 147.715 73.8017 147.539 73.59C147.433 73.2725 147.221 73.0608 146.974 72.9197Z" fill="white"/>
<path d="M150.997 71.7556H151.808V70.5561L151.949 70.4149H153.396V75.4246H152.478V76.095H155.477V75.4246H154.56V70.4149H156.006L156.147 70.5561V71.7556H156.959V69.7446H150.997V71.7556Z" fill="white"/>
<path d="M164.12 70.4149H164.861V73.8371C164.861 74.4015 164.72 74.7896 164.438 75.0366C164.156 75.2835 163.768 75.3894 163.274 75.3894C163.027 75.3894 162.78 75.3541 162.568 75.3188C162.356 75.2835 162.215 75.1777 162.074 75.0718C161.933 74.966 161.827 74.7896 161.757 74.6132C161.686 74.4015 161.651 74.1546 161.651 73.8723V70.4149H162.392V69.7446H159.71V70.4149H160.522V74.0487C160.522 74.7543 160.769 75.3188 161.227 75.6716C161.686 76.0244 162.321 76.2008 163.203 76.2008C163.556 76.2008 163.909 76.1655 164.191 76.0597C164.473 75.9538 164.755 75.8127 164.967 75.6363C165.179 75.4599 165.355 75.213 165.461 74.9307C165.567 74.6485 165.637 74.2957 165.637 73.9076V70.4149H166.449V69.7446H164.191V70.4149H164.12Z" fill="white"/>
<path d="M174.669 70.5208C174.387 70.2385 173.999 70.0269 173.575 69.8857C173.152 69.7446 172.658 69.6741 172.093 69.6741C171.988 69.6741 171.882 69.6741 171.705 69.6741C171.564 69.6741 171.423 69.6741 171.247 69.7093C171.106 69.7093 170.929 69.7094 170.788 69.7446C170.647 69.7446 170.506 69.7446 170.4 69.7446H169.236V70.4149H170.047V75.4246H169.236V76.095H170.329C170.435 76.095 170.576 76.095 170.718 76.095L171.141 76.1302C171.282 76.1302 171.423 76.1302 171.529 76.1655C171.67 76.1655 171.776 76.1655 171.847 76.1655C172.482 76.1655 173.011 76.095 173.469 75.9186C173.928 75.7422 174.316 75.5305 174.598 75.213C174.881 74.8955 175.128 74.5427 175.269 74.1546C175.41 73.7665 175.48 73.3079 175.48 72.814C175.48 72.32 175.41 71.8614 175.269 71.4733C175.198 71.1205 174.986 70.7677 174.669 70.5208ZM172.058 75.4952C172.023 75.4952 171.952 75.4952 171.882 75.4952H171.6C171.494 75.4952 171.423 75.4952 171.317 75.4952C171.282 75.4952 171.247 75.4952 171.211 75.4952V70.4149C171.282 70.4149 171.388 70.4149 171.494 70.3797C171.635 70.3797 171.811 70.3797 171.952 70.3797C172.411 70.3797 172.764 70.4502 173.081 70.5913C173.364 70.7325 173.611 70.9441 173.787 71.1911C173.963 71.438 174.069 71.7203 174.14 72.0025C174.21 72.2848 174.246 72.6023 174.246 72.8845C174.246 73.2373 174.21 73.5901 174.14 73.9076C174.069 74.2251 173.928 74.5074 173.787 74.7543C173.611 75.0013 173.399 75.1777 173.117 75.3188C172.834 75.4246 172.482 75.4952 172.058 75.4952Z" fill="white"/>
<path d="M179.008 70.4149H179.82V75.4246H179.008V76.095H181.76V75.4246H180.984V70.4149H181.76V69.7446H179.008V70.4149Z" fill="white"/>
<path d="M191.498 71.6143C191.356 71.2263 191.145 70.8735 190.863 70.5559C190.58 70.2737 190.227 70.0267 189.839 69.8856C189.451 69.7092 188.993 69.6387 188.464 69.6387C187.97 69.6387 187.511 69.7092 187.088 69.8856C186.7 70.062 186.347 70.2737 186.064 70.5559C185.782 70.8382 185.571 71.191 185.429 71.6143C185.288 72.0024 185.218 72.461 185.218 72.9197C185.218 73.3783 185.288 73.8369 185.429 74.225C185.571 74.6131 185.782 74.9659 186.064 75.2834C186.347 75.5656 186.664 75.8126 187.088 75.9537C187.476 76.1301 187.934 76.2007 188.464 76.2007C188.957 76.2007 189.416 76.1301 189.839 75.9537C190.227 75.7773 190.58 75.5656 190.863 75.2834C191.145 75.0012 191.356 74.6484 191.498 74.225C191.639 73.8369 191.709 73.3783 191.709 72.9197C191.709 72.461 191.639 72.0024 191.498 71.6143ZM188.534 75.5304C188.181 75.5304 187.899 75.4598 187.617 75.3187C187.37 75.1776 187.158 75.0012 186.982 74.7895C186.805 74.5425 186.7 74.2956 186.594 73.9781C186.523 73.6605 186.453 73.3077 186.453 72.955C186.453 72.6022 186.488 72.2494 186.558 71.9318C186.629 71.6143 186.735 71.3321 186.876 71.1204C187.017 70.9087 187.229 70.6971 187.44 70.5912C187.687 70.4501 187.97 70.3795 188.287 70.3795C188.64 70.3795 188.957 70.4501 189.204 70.5912C189.451 70.7323 189.663 70.9087 189.839 71.1204C190.016 71.3674 190.122 71.6143 190.227 71.9318C190.298 72.2494 190.369 72.6022 190.369 72.955C190.369 73.3077 190.333 73.6605 190.263 73.9781C190.192 74.2956 190.051 74.5778 189.91 74.7895C189.769 75.0012 189.557 75.2128 189.31 75.3187C189.134 75.4598 188.852 75.5304 188.534 75.5304Z" fill="white"/>
</g>
<defs>
<clipPath id="clip0_935_639">
<rect width="200" height="116.917" fill="white" transform="translate(0 0.666992)"/>
</clipPath>
</defs>
</svg>
